<svg xmlns="http://www.w3.org/2000/svg" width="500.62" height="472.546" viewBox="0 0 500.62 472.546">
  <defs>
    <style>
      .cls-1, .cls-6 {
        fill: #e60012;
      }

      .cls-1 {
        font-size: 65px;
        font-family: NotoSans-Bold, Noto Sans;
        letter-spacing: -0.05em;
      }

      .cls-1, .cls-2 {
        font-weight: 700;
      }

      .cls-2, .cls-4 {
        fill: #e60013;
      }

      .cls-2 {
        font-size: 30px;
        font-family: NotoSansJP-Bold, Noto Sans JP;
      }

      .cls-3 {
        fill: #d2d7da;
      }

      .cls-5 {
        fill: #2f2f2f;
      }
    </style>
  </defs>
  <g id="グループ_1038" data-name="グループ 1038" transform="translate(-51 -6423.267)">
    <text id="Osaka" class="cls-1" transform="translate(172.305 6553.694)"><tspan x="0" y="0">Osaka</tspan></text>
    <text id="大阪" class="cls-2" transform="translate(173.831 6596.541)"><tspan x="0" y="0">大阪</tspan></text>
    <g id="_17314_paint" data-name="17314_paint" transform="translate(51.834 6423.267)">
      <path id="パス_6411" data-name="パス 6411" class="cls-3" d="M154.324,190.277v-48.8a16.545,16.545,0,0,0-16.545-16.545H62a16.545,16.545,0,0,0-16.545,16.545v44.84a16.885,16.885,0,0,0,5.3,12.221q9.811,9.34,19.1,19.212a16.61,16.61,0,0,1,4.473,11.395q0,12.641,0,25.281A16.549,16.549,0,0,0,90.87,270.974h46.909a16.547,16.547,0,0,0,16.545-16.545Z" transform="translate(-45.453 129.781)"/>
      <path id="パス_6412" data-name="パス 6412" class="cls-3" d="M119.893,172.826v28.627a16.535,16.535,0,0,0,16.545,16.535h68.551a16.545,16.545,0,0,0,16.545-16.545V172.814a16.545,16.545,0,0,0-16.545-16.545H136.438a16.555,16.555,0,0,0-16.545,16.557Z" transform="translate(31.877 162.335)"/>
      <path id="パス_6413" data-name="パス 6413" class="cls-3" d="M114.412,189.1V166.392a16.547,16.547,0,0,1,16.545-16.547H301.588a16.555,16.555,0,0,0,16.547-16.555V93.557A16.556,16.556,0,0,1,334.68,77h87.871A16.533,16.533,0,0,1,439.1,93.529V280.862a16.514,16.514,0,0,1-16.533,16.529H275.95a16.537,16.537,0,0,1-16.533-16.547V222.188a16.545,16.545,0,0,0-16.545-16.545H130.941A16.545,16.545,0,0,1,114.412,189.1Z" transform="translate(26.183 79.989)"/>
      <path id="パス_6414" data-name="パス 6414" class="cls-3" d="M343.389,0H240.378a16.545,16.545,0,0,0-16.545,16.545v91.731a16.545,16.545,0,0,0,16.545,16.545H343.387a16.547,16.547,0,0,0,16.547-16.545V16.529A16.535,16.535,0,0,0,343.389,0Z" transform="translate(139.852 0)"/>
    </g>
    <rect id="長方形_428" data-name="長方形 428" class="cls-4" width="25.936" height="45.77" rx="5" transform="translate(337.132 6712.727)"/>
    <path id="パス_6416" data-name="パス 6416" class="cls-5" transform="translate(371.288 6788.067)"/>
    <path id="線_87" data-name="線 87" class="cls-6" d="M0,163.222a.65.65,0,0,1-.65-.65V0A.65.65,0,0,1,0-.65.65.65,0,0,1,.65,0V162.572A.65.65,0,0,1,0,163.222Z" transform="translate(315.124 6573.04)"/>
    <path id="パス_6807" data-name="パス 6807" class="cls-6" d="M34.735.65H0A.65.65,0,0,1-.65,0,.65.65,0,0,1,0-.65H34.735a.65.65,0,0,1,.65.65A.65.65,0,0,1,34.735.65Z" transform="translate(315.365 6735.611)"/>
    <rect id="長方形_670" data-name="長方形 670" class="cls-3" width="18.308" height="28.987" rx="4" transform="translate(51 6866.825)"/>
  </g>
</svg>
