<svg xmlns="http://www.w3.org/2000/svg" width="55.848" height="82.949" viewBox="0 0 55.848 82.949">
  <defs>
    <style>
      .cls-1 {
        fill: #e60012;
      }
    </style>
  </defs>
  <path id="パス_6717" data-name="パス 6717" class="cls-1" d="M111.567,0A27.921,27.921,0,0,0,83.644,27.923c0,15.741,7.8,19.095,16.426,29.566a51.575,51.575,0,0,1,11.5,25.46,51.575,51.575,0,0,1,11.5-25.46c8.623-10.471,16.426-13.825,16.426-29.566A27.921,27.921,0,0,0,111.567,0Zm0,37.574a9.65,9.65,0,1,1,9.65-9.65A9.65,9.65,0,0,1,111.567,37.574Z" transform="translate(-83.644)"/>
</svg>
