<svg xmlns="http://www.w3.org/2000/svg" width="500.62" height="472.546" viewBox="0 0 500.62 472.546">
  <defs>
    <style>
      .cls-1 {
        fill: #e60012;
      }

      .cls-2 {
        fill: #e60013;
      }

      .cls-3 {
        fill: #d2d7da;
      }

      .cls-4 {
        fill: #2960a6;
      }

      .cls-5 {
        fill: #0068b7;
      }

      .cls-6 {
        fill: #e60113;
      }

      .cls-7 {
        fill: #2f2f2f;
      }
    </style>
  </defs>
  <g id="グループ_985" data-name="グループ 985" transform="translate(-51 -6423.267)">
    <path id="パス_6786" data-name="パス 6786" class="cls-1" d="M43.875,0H34.06V-20.02H15.665V0H5.85V-46.41h9.815v18.2H34.06v-18.2h9.815Zm39.91-17.81q0,8.84-4.648,13.65T66.495.65A17.852,17.852,0,0,1,57.688-1.5,15.159,15.159,0,0,1,51.61-7.767,21.034,21.034,0,0,1,49.4-17.81q0-8.84,4.615-13.585T66.69-36.14a17.8,17.8,0,0,1,8.84,2.145,15.265,15.265,0,0,1,6.045,6.24A20.691,20.691,0,0,1,83.785-17.81Zm-24.505,0q0,5.265,1.722,7.962t5.623,2.7a6.1,6.1,0,0,0,5.557-2.7q1.723-2.7,1.723-7.962t-1.723-7.9Q70.46-28.34,66.56-28.34q-3.835,0-5.557,2.632T59.28-17.81ZM98.215-49.4v22.1q0,2.015-.162,4t-.357,4h.13q.975-1.365,2.015-2.73t2.21-2.665l9.945-10.79h10.92l-14.1,15.405L123.76,0H112.58L102.375-14.365l-4.16,3.315V0H88.53V-49.4Zm37.05,0v22.1q0,2.015-.162,4t-.358,4h.13q.975-1.365,2.015-2.73T139.1-24.7l9.945-10.79h10.92l-14.1,15.405L160.81,0H149.63L139.425-14.365l-4.16,3.315V0H125.58V-49.4ZM177.19-36.2q7.15,0,10.952,3.087t3.8,9.458V0h-6.76L183.3-4.81h-.26a15.086,15.086,0,0,1-4.81,4.16,15.419,15.419,0,0,1-6.955,1.3,11.51,11.51,0,0,1-7.865-2.73q-3.12-2.73-3.12-8.515,0-5.655,3.965-8.32t11.895-2.99l6.175-.195v-1.56a5.213,5.213,0,0,0-1.462-4.095,5.9,5.9,0,0,0-4.062-1.3,17.408,17.408,0,0,0-5.07.748,41.614,41.614,0,0,0-4.94,1.852L163.6-33.02a29.537,29.537,0,0,1,6.305-2.307A29.9,29.9,0,0,1,177.19-36.2Zm5.135,19.76-3.77.13q-4.68.13-6.5,1.69a5.132,5.132,0,0,0-1.82,4.1,3.631,3.631,0,0,0,1.3,3.152,5.623,5.623,0,0,0,3.38.943,7.774,7.774,0,0,0,5.265-1.852,6.541,6.541,0,0,0,2.145-5.233ZM203.515-49.4a6.679,6.679,0,0,1,3.7,1.007q1.56,1.007,1.56,3.737,0,2.665-1.56,3.7a6.523,6.523,0,0,1-3.7,1.04,6.485,6.485,0,0,1-3.738-1.04q-1.528-1.04-1.528-3.7,0-2.73,1.528-3.737A6.64,6.64,0,0,1,203.515-49.4Zm4.81,13.91V0H198.64V-35.49ZM226.46.65A11.823,11.823,0,0,1,216.808-4Q213.07-8.645,213.07-17.68q0-9.1,3.77-13.78a12.077,12.077,0,0,1,9.88-4.68,12.019,12.019,0,0,1,6.305,1.495,11.866,11.866,0,0,1,3.9,3.7h.325q-.195-1.04-.455-3.022a31.217,31.217,0,0,1-.26-4.062V-49.4h9.685V0h-7.41l-1.885-4.615h-.39A12.4,12.4,0,0,1,232.7-.877,11.474,11.474,0,0,1,226.46.65Zm3.38-7.735q3.965,0,5.59-2.373t1.755-7.117v-1.04q0-5.135-1.592-7.9t-5.882-2.762a5.693,5.693,0,0,0-5.005,2.762q-1.82,2.763-1.82,7.962t1.82,7.833A5.882,5.882,0,0,0,229.84-7.085ZM285.35-17.81q0,8.84-4.648,13.65T268.06.65A17.852,17.852,0,0,1,259.253-1.5a15.159,15.159,0,0,1-6.078-6.272,21.034,21.034,0,0,1-2.21-10.042q0-8.84,4.615-13.585t12.675-4.745a17.8,17.8,0,0,1,8.84,2.145,15.265,15.265,0,0,1,6.045,6.24A20.69,20.69,0,0,1,285.35-17.81Zm-24.505,0q0,5.265,1.723,7.962t5.622,2.7a6.1,6.1,0,0,0,5.557-2.7q1.723-2.7,1.723-7.962t-1.723-7.9q-1.723-2.632-5.622-2.632-3.835,0-5.557,2.632T260.845-17.81Z" transform="translate(55.753 6553.694)"/>
    <path id="パス_6787" data-name="パス 6787" class="cls-2" d="M8.82-18.33H1.74v3.57H8.82V-7.5C5.79-6.42,2.73-5.37.69-4.77L2.28-1.11c1.95-.81,4.26-1.77,6.54-2.76V2.28h3.75V-24.93H8.82ZM21.3-1.5c-1.08,0-1.26-.21-1.26-1.89v-8.76a88.694,88.694,0,0,0,8.73-5.1l-2.58-3.21a59.639,59.639,0,0,1-6.15,4.56v-9H16.35V-3.45c0,4.23.99,5.49,4.41,5.49h4.02c3.36,0,4.23-2.22,4.59-7.95a9.927,9.927,0,0,1-3.42-1.62c-.21,4.83-.39,6.03-1.53,6.03ZM39.36-22.26a21.627,21.627,0,0,0-5.01-2.94l-2.04,2.61a19.694,19.694,0,0,1,4.89,3.18Zm-1.44,7.83a19.159,19.159,0,0,0-4.98-2.82l-1.95,2.64a19.962,19.962,0,0,1,4.83,3.06ZM34.74,2.31c1.38-2.94,2.85-6.45,4.02-9.66L35.91-9.33A87.785,87.785,0,0,1,31.53.36ZM50.07-4.62c.12-.96.24-2.04.36-3.15h3.09q-.135,1.845-.27,3.15Zm-2.7-3.15c-.12,1.11-.24,2.19-.36,3.15H44.19c.12-1.02.27-2.07.42-3.15Zm-2.04-6.06h2.58c-.06.93-.15,1.89-.21,2.85H45Zm5.4,2.85c.09-.96.18-1.92.24-2.85h2.85c-.03,1.02-.09,1.98-.12,2.85Zm8.52,3.21v-3.21H56.97c.09-1.35.15-2.82.21-4.44.03-.42.03-1.44.03-1.44H42.96a21.468,21.468,0,0,0,1.17-1.98H58.62v-3.18H45.57c.33-.87.63-1.77.9-2.67l-3.51-.72a20.588,20.588,0,0,1-4.77,8.88,16.482,16.482,0,0,1,3,2.04c.36-.42.72-.84,1.08-1.32-.15,1.53-.33,3.18-.54,4.83h-3v3.21h2.58c-.39,2.76-.84,5.34-1.23,7.35l3.42.27.24-1.47h9.03a3.284,3.284,0,0,1-.39.9,1.187,1.187,0,0,1-1.11.48c-.6,0-1.77-.03-3.06-.12a6.815,6.815,0,0,1,.87,2.91,21,21,0,0,0,3.78-.09,3.028,3.028,0,0,0,2.4-1.35,6.551,6.551,0,0,0,.9-2.73h2.76v-3H56.55c.09-.93.18-1.95.24-3.15Zm23.7-5.76H74.82v-1.56h8.13Zm0,3.93H74.82v-1.56h8.13Zm0,3.96H74.82V-7.23h8.13ZM71.43-17.67V-3.06H86.49V-17.67H79.74c.24-.51.51-1.05.75-1.62H88.5v-2.88H83.91c.48-.72,1.02-1.59,1.56-2.49l-3.54-.75a24.784,24.784,0,0,1-1.59,3.24H76.59l.36-.15A10.639,10.639,0,0,0,75-25.38l-2.82,1.05a12.557,12.557,0,0,1,1.38,2.16H69.39v2.88h7.26c-.09.54-.18,1.08-.3,1.62Zm-2.34-2.52a24.023,24.023,0,0,0-5.01-4.53l-2.64,2.16a22.7,22.7,0,0,1,4.83,4.74Zm-.75,6.42H61.41v3.27h3.45v6.33a39.4,39.4,0,0,1-4.11,2.76l1.74,3.72c1.65-1.26,2.97-2.43,4.29-3.6,1.95,2.34,4.41,3.18,8.1,3.33,3.57.15,9.6.09,13.2-.09a18.684,18.684,0,0,1,1.11-3.6c-3.99.3-10.74.39-14.25.24-3.12-.12-5.37-.93-6.6-2.94Z" transform="translate(57.279 6596.541)"/>
    <g id="_17314_paint" data-name="17314_paint" transform="translate(51.834 6423.267)">
      <path id="パス_6411" data-name="パス 6411" class="cls-3" d="M154.324,190.277v-48.8a16.545,16.545,0,0,0-16.545-16.545H62a16.545,16.545,0,0,0-16.545,16.545v44.84a16.885,16.885,0,0,0,5.3,12.221q9.811,9.34,19.1,19.212a16.61,16.61,0,0,1,4.473,11.395q0,12.641,0,25.281A16.549,16.549,0,0,0,90.87,270.974h46.909a16.547,16.547,0,0,0,16.545-16.545Z" transform="translate(-45.453 129.781)"/>
      <path id="パス_6412" data-name="パス 6412" class="cls-3" d="M119.893,172.826v28.627a16.535,16.535,0,0,0,16.545,16.535h68.551a16.545,16.545,0,0,0,16.545-16.545V172.814a16.545,16.545,0,0,0-16.545-16.545H136.438a16.555,16.555,0,0,0-16.545,16.557Z" transform="translate(31.877 162.335)"/>
      <path id="パス_6413" data-name="パス 6413" class="cls-3" d="M114.412,189.1V166.392a16.547,16.547,0,0,1,16.545-16.547H301.588a16.555,16.555,0,0,0,16.547-16.555V93.557A16.556,16.556,0,0,1,334.68,77h87.871A16.533,16.533,0,0,1,439.1,93.529V280.862a16.514,16.514,0,0,1-16.533,16.529H275.95a16.537,16.537,0,0,1-16.533-16.547V222.188a16.545,16.545,0,0,0-16.545-16.545H130.941A16.545,16.545,0,0,1,114.412,189.1Z" transform="translate(26.183 79.989)"/>
      <path id="パス_6414" data-name="パス 6414" class="cls-3" d="M343.389,0H240.378a16.545,16.545,0,0,0-16.545,16.545v91.731a16.545,16.545,0,0,0,16.545,16.545H343.387a16.547,16.547,0,0,0,16.547-16.545V16.529A16.535,16.535,0,0,0,343.389,0Z" transform="translate(139.852 0)"/>
    </g>
    <path id="パス_6788" data-name="パス 6788" class="cls-4" d="M5,0H20.936a5,5,0,0,1,5,5V40.77a5,5,0,0,1-5,5H5a5,5,0,0,1-5-5V5A5,5,0,0,1,5,0Z" transform="translate(337.132 6712.727)"/>
    <path id="パス_6789" data-name="パス 6789" class="cls-5" d="M5,0H19.41a5,5,0,0,1,5,5V19.41a5,5,0,0,1-5,5H5a5,5,0,0,1-5-5V5A5,5,0,0,1,5,0Z" transform="translate(390.529 6666.957)"/>
    <path id="パス_6790" data-name="パス 6790" class="cls-6" d="M5,0H19.41a5,5,0,0,1,5,5V19.41a5,5,0,0,1-5,5H5a5,5,0,0,1-5-5V5A5,5,0,0,1,5,0Z" transform="translate(431.248 6464.558)"/>
    <path id="パス_6791" data-name="パス 6791" class="cls-5" d="M5,0H19.41a5,5,0,0,1,5,5V19.41a5,5,0,0,1-5,5H5a5,5,0,0,1-5-5V5A5,5,0,0,1,5,0Z" transform="translate(472.915 6623.644)"/>
    <path id="パス_6792" data-name="パス 6792" class="cls-5" d="M5,0H19.41a5,5,0,0,1,5,5V19.41a5,5,0,0,1-5,5H5a5,5,0,0,1-5-5V5A5,5,0,0,1,5,0Z" transform="translate(472.915 6756.208)"/>
    <path id="パス_6793" data-name="パス 6793" class="cls-5" d="M5,0H19.41a5,5,0,0,1,5,5V19.41a5,5,0,0,1-5,5H5a5,5,0,0,1-5-5V5A5,5,0,0,1,5,0Z" transform="translate(390.529 6723.406)"/>
    <path id="パス_6794" data-name="パス 6794" class="cls-5" d="M5,0H19.41a5,5,0,0,1,5,5V19.41a5,5,0,0,1-5,5H5a5,5,0,0,1-5-5V5A5,5,0,0,1,5,0Z" transform="translate(244.067 6666.957)"/>
    <path id="パス_6795" data-name="パス 6795" class="cls-5" d="M5,0H19.41a5,5,0,0,1,5,5V19.41a5,5,0,0,1-5,5H5a5,5,0,0,1-5-5V5A5,5,0,0,1,5,0Z" transform="translate(97.604 6691.367)"/>
    <path id="パス_6796" data-name="パス 6796" class="cls-5" d="M5,0H19.41a5,5,0,0,1,5,5V19.41a5,5,0,0,1-5,5H5a5,5,0,0,1-5-5V5A5,5,0,0,1,5,0Z" transform="translate(239.49 6756.208)"/>
    <path id="パス_6797" data-name="パス 6797" class="cls-5" d="M5,0H19.41a5,5,0,0,1,5,5V19.41a5,5,0,0,1-5,5H5a5,5,0,0,1-5-5V5A5,5,0,0,1,5,0Z" transform="translate(337.894 6667.72)"/>
    <path id="パス_6416" data-name="パス 6416" class="cls-7" transform="translate(371.288 6788.067)"/>
    <path id="パス_6798" data-name="パス 6798" class="cls-1" d="M0,28.65A.65.65,0,0,1-.65,28V0A.65.65,0,0,1,0-.65.65.65,0,0,1,.65,0V28A.65.65,0,0,1,0,28.65Z" transform="translate(375.5 6476.763)"/>
    <path id="パス_6799" data-name="パス 6799" class="cls-1" d="M70,.65H0A.65.65,0,0,1-.65,0,.65.65,0,0,1,0-.65H70a.65.65,0,0,1,.65.65A.65.65,0,0,1,70,.65Z" transform="translate(375.5 6476.763)"/>
    <path id="パス_6800" data-name="パス 6800" class="cls-3" d="M4,0H14.308a4,4,0,0,1,4,4V24.987a4,4,0,0,1-4,4H4a4,4,0,0,1-4-4V4A4,4,0,0,1,4,0Z" transform="translate(51 6866.825)"/>
    <path id="パス_6801" data-name="パス 6801" class="cls-5" d="M5,0H19.41a5,5,0,0,1,5,5V19.41a5,5,0,0,1-5,5H5a5,5,0,0,1-5-5V5A5,5,0,0,1,5,0Z" transform="translate(60.154 6854.62)"/>
  </g>
</svg>
